<!--
Created by Mars [maao.cc]
HomePod is a series of products designed by Apple Inc.
-->
<svg width="454" height="400" viewBox="0 0 454 400" fill="none" xmlns="http://www.w3.org/2000/svg">
<ellipse cx="282" cy="106.5" rx="91" ry="26.5" fill="white"/>
<ellipse cx="282" cy="381" rx="91" ry="19" fill="#A9ABB8"/>
<path fill-rule="evenodd" clip-rule="evenodd" d="M454 238C454 302.895 418.061 359.396 365 388.685V388H199V388.685C145.939 359.396 110 302.895 110 238C110 187.621 131.659 142.301 166.174 110.844C169.508 133.226 220.314 151 282.5 151C343.951 151 394.29 133.643 398.688 111.635C432.701 143.058 454 188.042 454 238ZM282.212 66.0001C282.141 66 282.071 66 282 66C281.539 66 281.079 66.0018 280.619 66.0054C281.149 66.0024 281.68 66.0006 282.212 66.0001Z" fill="#A9ABB8"/>
<path fill-rule="evenodd" clip-rule="evenodd" d="M91.9246 281.012C81.9083 283.816 76 287.268 76 291C76 295.439 84.3559 299.48 98.0399 302.508C95.6251 295.567 93.5767 288.39 91.9246 281.012Z" fill="#A9ABB8"/>
<path fill-rule="evenodd" clip-rule="evenodd" d="M80.9796 295.97H95.8958C90.146 277.321 87 257.11 87 236C87 163.861 123.74 102.216 175.584 77.5275C169.536 77.9226 163.311 78.1287 156.955 78.1287C100.373 78.1287 54.1458 61.7913 51.1119 41.2185C19.7075 70.1328 0 111.789 0 158.096C0 217.745 32.7005 269.678 80.9796 296.6V295.97ZM156.693 0.000117122L156.5 0C156.081 0 155.662 0.00166428 155.244 0.00498666C155.726 0.00217469 156.209 0.000548985 156.693 0.000117122Z" fill="#A9ABB8"/>
<ellipse cx="156" cy="42" rx="80" ry="24" fill="white"/>
</svg>