<!--
This icon is from Internet.
If this ifringes your copyright,
I'm really sorry.
Please contact me through any method listed on https://maao.cc/en/
///
这个图标来自互联网。
如果这侵犯到了您的版权，我感到非常抱歉。
请通过在 https://maao.cc/cn/ 列出的任何一种途径与我取得联系。
-->
<svg xmlns="http://www.w3.org/2000/svg" viewBox="0 0 24 30" fill="none">
  <g transform="translate(0, -3) scale(1.25, 1.25)">
    <path d="M12 11C13.3202 11 14.5569 10.8231 15.4982 10.5093C15.9636 10.3542 16.4124 10.1474 16.7653 9.86928C16.954 9.72058 17.1584 9.51519 17.3035 9.25247C17.4001 9.07775 17.6524 9.00981 17.7811 9.1624C18.8865 10.4729 19.5 12.2723 19.5 14.2581C19.5 18.5338 16.4416 22 12.6689 22H11.3311C7.5584 22 4.5 18.5338 4.5 14.2581C4.5 12.2723 5.1135 10.4729 6.21893 9.16239C6.34764 9.00981 6.59995 9.07774 6.69649 9.25247C6.84164 9.51519 7.04597 9.72058 7.23466 9.86928C7.58762 10.1474 8.03639 10.3542 8.50179 10.5093C9.44305 10.8231 10.6798 11 12 11Z" fill="gray"/>
    <ellipse cx="12" cy="8.5" rx="4.5" ry="1.5" fill="white"/>
  </g>
</svg>